<svg width="1596" height="1013" viewBox="0 0 1596 1013" fill="none" xmlns="http://www.w3.org/2000/svg">
<path d="M549.033 475.914L542.117 440L535.892 475.914L502 464.173L528.283 489.036L502 511.827L535.892 501.468L542.117 536L549.033 501.468L585 511.827L557.333 489.036L585 464.173L549.033 475.914Z" stroke="#A67258"/>
<path d="M48.0333 439.914L41.1167 404L34.8917 439.914L1 428.173L27.2833 453.036L1 475.827L34.8917 465.468L41.1167 500L48.0333 465.468L84 475.827L56.3333 453.036L84 428.173L48.0333 439.914Z" stroke="#A67258"/>
<path d="M592.033 850.914L585.117 815L578.892 850.914L545 839.173L571.283 864.036L545 886.827L578.892 876.468L585.117 911L592.033 876.468L628 886.827L600.333 864.036L628 839.173L592.033 850.914Z" stroke="#A67258"/>
<path d="M76.0333 740.914L69.1167 705L62.8917 740.914L29 729.173L55.2833 754.036L29 776.827L62.8917 766.468L69.1167 801L76.0333 766.468L112 776.827L84.3333 754.036L112 729.173L76.0333 740.914Z" stroke="#A67258"/>
<path d="M76.0333 118.914L69.1167 83L62.8917 118.914L29 107.173L55.2833 132.036L29 154.827L62.8917 144.468L69.1167 179L76.0333 144.468L112 154.827L84.3333 132.036L112 107.173L76.0333 118.914Z" stroke="#A67258"/>
<path d="M457.033 70.9137L450.117 35L443.892 70.9137L410 59.1727L436.283 84.036L410 106.827L443.892 96.4676L450.117 131L457.033 96.4676L493 106.827L465.333 84.036L493 59.1727L457.033 70.9137Z" stroke="#A67258"/>
<path d="M972.033 951.914L965.117 916L958.892 951.914L925 940.173L951.283 965.036L925 987.827L958.892 977.468L965.117 1012L972.033 977.468L1008 987.827L980.333 965.036L1008 940.173L972.033 951.914Z" stroke="#A67258"/>
<path d="M1096.03 644.914L1089.12 609L1082.89 644.914L1049 633.173L1075.28 658.036L1049 680.827L1082.89 670.468L1089.12 705L1096.03 670.468L1132 680.827L1104.33 658.036L1132 633.173L1096.03 644.914Z" stroke="#A67258"/>
<path d="M1162.03 399.914L1155.12 364L1148.89 399.914L1115 388.173L1141.28 413.036L1115 435.827L1148.89 425.468L1155.12 460L1162.03 425.468L1198 435.827L1170.33 413.036L1198 388.173L1162.03 399.914Z" stroke="#A67258"/>
<path d="M1074.03 36.9137L1067.12 1L1060.89 36.9137L1027 25.1727L1053.28 50.036L1027 72.8273L1060.89 62.4676L1067.12 97L1074.03 62.4676L1110 72.8273L1082.33 50.036L1110 25.1727L1074.03 36.9137Z" stroke="#A67258"/>
<path d="M1559.03 882.914L1552.12 847L1545.89 882.914L1512 871.173L1538.28 896.036L1512 918.827L1545.89 908.468L1552.12 943L1559.03 908.468L1595 918.827L1567.33 896.036L1595 871.173L1559.03 882.914Z" stroke="#A67258"/>
<path d="M1476.03 495.914L1469.12 460L1462.89 495.914L1429 484.173L1455.28 509.036L1429 531.827L1462.89 521.468L1469.12 556L1476.03 521.468L1512 531.827L1484.33 509.036L1512 484.173L1476.03 495.914Z" stroke="#A67258"/>
<path d="M1559.03 54.9137L1552.12 19L1545.89 54.9137L1512 43.1727L1538.28 68.036L1512 90.8273L1545.89 80.4676L1552.12 115L1559.03 80.4676L1595 90.8273L1567.33 68.036L1595 43.1727L1559.03 54.9137Z" stroke="#A67258"/>
</svg>
