<svg width="13" height="13" viewBox="0 0 13 13" fill="none" xmlns="http://www.w3.org/2000/svg">
<path d="M12.4398 13L7.47085 8.03168C7.0741 8.36967 6.61784 8.63123 6.10206 8.81636C5.58628 9.00149 5.06785 9.09405 4.54679 9.09405C3.27612 9.09405 2.20066 8.65424 1.32039 7.77461C0.440131 6.89446 0 5.81939 0 4.54941C0 3.27942 0.439602 2.20382 1.31881 1.32261C2.19854 0.440871 3.27347 0 4.54361 0C5.81428 0 6.89027 0.440077 7.77159 1.32023C8.65291 2.20039 9.09357 3.27598 9.09357 4.54703C9.09357 5.09818 8.99597 5.63162 8.80077 6.14733C8.60504 6.66305 8.34847 7.10418 8.03107 7.47074L13 12.4383L12.4398 13ZM4.54679 8.29985C5.5995 8.29985 6.48849 7.93752 7.21376 7.21288C7.93849 6.48823 8.30086 5.59935 8.30086 4.54623C8.30086 3.49364 7.93849 2.60503 7.21376 1.88038C6.48902 1.15573 5.6003 0.793409 4.54758 0.793409C3.49486 0.793409 2.60587 1.15573 1.88061 1.88038C1.15587 2.60503 0.793505 3.49364 0.793505 4.54623C0.793505 5.59882 1.15587 6.48744 1.88061 7.21209C2.60534 7.93673 3.49407 8.29985 4.54679 8.29985Z" fill="#D9D9D9" fill-opacity="0.5"/>
</svg>
